<svg xmlns="http://www.w3.org/2000/svg" width="2048" height="2048" viewBox="0 0 2048 2048" version="1.1"><path d="M 1361 253.142 C 1353.575 256.402, 1326.350 267.869, 1300.500 278.624 C 1244.298 302.007, 1223.604 310.649, 1199 321.009 C 1188.825 325.294, 1176.900 330.259, 1172.500 332.043 C 1168.100 333.826, 1164.152 335.592, 1163.727 335.966 C 1163.302 336.339, 1173.877 341.971, 1187.227 348.481 C 1200.577 354.991, 1222.418 365.662, 1235.763 372.196 L 1260.026 384.075 1303.263 365.656 C 1327.043 355.525, 1358.425 342.179, 1373 335.997 C 1387.575 329.816, 1413.450 318.815, 1430.500 311.551 C 1447.550 304.287, 1464.082 297.286, 1467.238 295.993 C 1470.393 294.700, 1472.867 293.534, 1472.735 293.402 C 1471.489 292.156, 1377.270 247.027, 1376.082 247.107 C 1375.212 247.166, 1368.425 249.881, 1361 253.142 M 1478.500 306.554 C 1476.850 307.339, 1464.475 312.653, 1451 318.365 C 1437.525 324.076, 1408.275 336.514, 1386 346.005 C 1288.061 387.735, 1276.242 392.760, 1271.754 394.578 L 1267.007 396.500 1267.004 468.250 C 1267.002 507.712, 1267.238 540, 1267.528 540 C 1268.367 540, 1347.481 506.416, 1442 465.936 L 1483.500 448.163 1483.500 376.582 C 1483.500 329.486, 1483.158 305.023, 1482.500 305.064 C 1481.950 305.099, 1480.150 305.770, 1478.500 306.554 M 789.403 317.045 C 774.862 321.656, 764.991 336.843, 766.260 352.652 L 766.766 358.948 759.133 363.095 C 745.868 370.301, 727.224 382.207, 715.736 390.806 L 704.641 399.112 699.070 396.644 C 690.750 392.957, 686.340 392.012, 677.432 392.006 C 649.893 391.987, 629 412.691, 629 440 C 629 453.808, 634.492 466.490, 644.546 475.894 L 650.781 481.726 651.915 495.113 C 655.012 531.670, 666.461 558.221, 693.694 592 C 699.237 598.875, 704.897 605.542, 706.272 606.817 L 708.771 609.133 708.922 598.790 L 709.074 588.446 705.681 584.473 C 693.094 569.731, 682.931 548.085, 679.969 529.709 C 678.707 521.883, 679.069 494.340, 680.479 490.834 C 680.918 489.744, 682.881 488.929, 686.148 488.480 C 693.686 487.443, 704.631 481.530, 711 475.053 C 717.094 468.856, 722.323 459.257, 724.087 451.028 C 725.545 444.231, 724.777 430.934, 722.565 424.657 L 720.857 419.813 723.679 415.657 C 731.373 404.321, 752.251 387.331, 767.655 379.870 L 775.810 375.921 781.972 379.903 C 800.031 391.576, 822.793 385.354, 832.240 366.163 C 835.190 360.172, 835.500 358.683, 835.500 350.521 C 835.500 342.731, 835.117 340.681, 832.696 335.500 C 824.881 318.779, 807.417 311.334, 789.403 317.045 M 793.500 333.362 C 787.103 336.335, 783 342.836, 783 350 C 783 364.472, 798.781 372.964, 811.126 365.135 C 816.495 361.730, 819.355 356.453, 819.373 349.922 C 819.387 344.426, 816.955 339.888, 811.735 335.669 C 808.707 333.221, 806.846 332.561, 802.235 332.297 C 798.761 332.098, 795.317 332.518, 793.500 333.362 M 1151 418.823 L 1151 490.583 1154.250 492.099 C 1156.037 492.933, 1178.758 504.052, 1204.740 516.808 C 1230.722 529.563, 1252.213 540, 1252.497 540 C 1252.781 540, 1252.898 507.564, 1252.757 467.919 L 1252.500 395.838 1203.500 372.117 C 1176.550 359.070, 1153.713 348.095, 1152.750 347.729 C 1151.093 347.098, 1151 350.893, 1151 418.823 M 667.478 418.871 C 655.184 424.456, 649.888 439.265, 655.921 451.189 C 658.205 455.702, 658.246 456.173, 657.031 463.689 C 653.949 482.742, 656.255 509.479, 662.642 528.735 C 667.860 544.471, 679.098 564.082, 689.441 575.500 L 693.064 579.500 688.607 571 C 683.062 560.426, 677.575 544.717, 675.418 533.241 C 672.872 519.703, 673.887 492.773, 677.423 480 C 681.916 463.773, 681.793 464.019, 686.354 462.052 C 694.923 458.356, 699.941 450.499, 699.978 440.718 C 700.016 430.600, 695.668 423.718, 686.500 419.383 C 680.406 416.502, 673.124 416.306, 667.478 418.871 M 828.293 426.010 C 810.893 428.553, 795.186 443.964, 791.852 461.766 C 790.831 467.220, 791.172 478.744, 792.453 482.037 C 792.889 483.158, 791.084 484.698, 785.775 487.732 C 750.671 507.799, 731.019 542.530, 731.004 584.530 C 730.988 628.830, 747.429 674.093, 773.668 701.985 C 796.510 726.267, 823.558 739.921, 861.932 746.542 L 871.365 748.169 884.217 757.545 C 931.652 792.152, 985.076 814.151, 1043.401 823.097 C 1055.505 824.954, 1056.926 824.982, 1066.401 823.557 C 1071.955 822.721, 1078.075 821.917, 1080 821.769 L 1083.500 821.500 1083.767 795.863 L 1084.033 770.225 1092.529 767.576 C 1097.202 766.119, 1101.695 764.671, 1102.513 764.357 C 1103.806 763.861, 1104 767.183, 1104 789.768 C 1104 804.058, 1104.267 817.083, 1104.593 818.713 L 1105.185 821.676 1110.093 820.705 L 1115 819.735 1115.051 789.617 L 1115.102 759.500 1126.164 754 L 1137.226 748.500 1137.083 721.020 C 1137.004 705.906, 1136.616 693.229, 1136.220 692.848 C 1135.197 691.866, 1048.833 650, 1047.829 650 C 1047.373 650, 1047 676.775, 1047 709.500 L 1047 769 1039.106 769 C 1012.290 769, 981.063 761.770, 955.692 749.686 C 934.655 739.667, 918.682 728.533, 901.669 712.031 C 889.561 700.286, 883.180 691.455, 878.626 680.141 C 875.748 672.990, 875.550 671.666, 875.530 659.500 C 875.511 648.418, 875.850 645.541, 877.822 640 C 881.054 630.920, 887.157 620.950, 893.831 613.849 L 899.506 607.812 906.003 610.017 C 915.591 613.270, 927.210 612.499, 936.340 608.004 C 951.760 600.413, 960.986 583.061, 958.153 566.980 C 955.026 549.227, 942.843 536.972, 925.250 533.883 C 908.465 530.937, 891.628 539.854, 883.747 555.863 C 881.123 561.193, 880.534 563.711, 880.180 571.123 C 879.946 576.005, 880.013 580, 880.328 580 C 880.642 580, 883.510 578.425, 886.700 576.500 C 889.890 574.575, 893.962 572.515, 895.750 571.922 C 897.538 571.330, 899 570.187, 899 569.383 C 899 568.578, 899.856 566.251, 900.903 564.210 C 907.182 551.966, 922.388 549.351, 932.339 558.803 C 936.688 562.934, 938.322 566.886, 938.328 573.282 C 938.332 578.079, 937.829 579.783, 935.375 583.274 C 929.672 591.388, 919.583 594.218, 910.011 590.388 C 906.173 588.852, 905.726 588.879, 900.602 590.959 C 880.278 599.207, 855.312 623.030, 843.273 645.660 L 838.736 654.188 831.293 646.844 C 812.777 628.575, 801.238 608.573, 796.772 587.005 C 794.213 574.648, 794.739 556.231, 797.970 545.039 C 800.670 535.687, 807.738 521.946, 812.987 515.846 L 816.991 511.193 821.358 512.507 C 843.273 519.103, 865.280 509.698, 875.628 489.314 C 879.463 481.760, 879.500 481.575, 879.500 470.093 C 879.500 459.114, 879.330 458.141, 876.285 451.712 C 869.738 437.891, 856.857 428.126, 842.417 426.039 C 838.613 425.490, 835.050 425.087, 834.500 425.145 C 833.950 425.202, 831.157 425.592, 828.293 426.010 M 826.491 449.865 C 810.974 456.914, 809.622 479.104, 824.125 488.701 C 830.418 492.866, 838.755 493.092, 845.985 489.293 C 862.097 480.827, 861.455 458.395, 844.858 449.928 C 840.039 447.469, 831.827 447.441, 826.491 449.865 M 1474.500 479.131 C 1469.550 481.336, 1461.225 484.865, 1456 486.973 C 1450.775 489.081, 1433.900 496.196, 1418.500 502.784 C 1372.514 522.456, 1275.781 563.703, 1271.750 565.358 L 1268 566.898 1267.941 595.199 C 1267.909 610.765, 1267.714 630.925, 1267.508 640 C 1266.995 662.534, 1267.903 681.325, 1269.443 680.048 C 1270.262 679.367, 1271.139 679.965, 1272.363 682.038 C 1273.326 683.667, 1274.832 685, 1275.712 685 C 1277.112 685, 1277.088 685.245, 1275.521 686.976 C 1274.538 688.063, 1273.343 688.712, 1272.866 688.417 C 1272.390 688.123, 1272 688.411, 1272 689.058 C 1272 689.728, 1271.168 690.016, 1270.065 689.727 C 1268.899 689.422, 1267.900 689.818, 1267.553 690.722 C 1267.174 691.710, 1267.442 692.044, 1268.339 691.700 C 1269.089 691.413, 1297.556 681.852, 1331.601 670.455 C 1382.176 653.523, 1448.763 630.977, 1478 620.884 L 1483.500 618.985 1483.500 546.993 C 1483.500 507.397, 1483.500 475.027, 1483.500 475.061 C 1483.500 475.095, 1479.450 476.926, 1474.500 479.131 M 1152 628.976 L 1152 739.835 1146.750 742.895 C 1143.862 744.579, 1141.871 745.966, 1142.326 745.978 C 1143.941 746.021, 1156.847 737.979, 1165.419 731.588 C 1175.063 724.398, 1177.400 723.395, 1213 711.149 C 1225.925 706.704, 1240.100 701.748, 1244.500 700.137 L 1252.500 697.207 1252.500 631.907 L 1252.500 566.606 1213 547.381 C 1191.275 536.807, 1168.662 525.897, 1162.750 523.136 L 1152 518.118 1152 628.976 M 569.945 531.885 C 560.988 534.752, 554.258 538.969, 548.047 545.609 C 533.236 561.442, 529.755 583.815, 539.040 603.500 C 544.492 615.059, 555.617 624.996, 567.749 629.145 C 581.079 633.703, 599.924 631.612, 610.560 624.395 C 614.727 621.567, 614.838 621.585, 626.886 627.134 C 644.167 635.093, 662.964 650.094, 672.641 663.648 C 681.468 676.013, 689 695.039, 689 704.973 L 689 709.527 700.250 713.885 C 715.293 719.712, 731.159 723.619, 745.060 724.922 C 764.393 726.732, 763.684 727.158, 755.142 718.866 C 746.325 710.307, 738.102 699.416, 729.446 684.834 C 712.459 656.217, 674.351 619.067, 642.551 600.124 C 632.283 594.007, 632.110 593.843, 633.141 591.196 C 634.949 586.560, 634.389 572.203, 632.119 565 C 627.122 549.138, 616.016 538.012, 599.715 532.540 C 590.414 529.418, 578.475 529.155, 569.945 531.885 M 576.137 557.369 C 571.318 559.113, 565.327 564.464, 562.758 569.319 C 559.467 575.540, 559.583 586.867, 563 592.953 C 566.295 598.823, 572.639 603.542, 579.096 604.927 C 594.656 608.264, 608.956 596.805, 608.956 581 C 608.956 564.064, 591.791 551.704, 576.137 557.369 M 1114.500 619.607 C 1102.950 624.232, 1086.750 630.550, 1078.500 633.649 C 1070.250 636.747, 1063.155 639.586, 1062.733 639.958 C 1061.956 640.643, 1134.692 677, 1136.838 677 C 1137.687 677, 1137.999 670.747, 1137.995 653.750 C 1137.989 629.786, 1137.151 610.925, 1136.099 611.099 C 1135.770 611.154, 1126.050 614.982, 1114.500 619.607 M 1416 657.564 C 1379.975 669.906, 1321.250 689.898, 1285.500 701.989 C 1249.750 714.081, 1210.375 727.525, 1198 731.866 L 1175.500 739.759 1175.244 815.880 C 1175.103 857.746, 1174.653 891.999, 1174.244 891.999 C 1173.835 891.998, 1167.200 889.367, 1159.500 886.153 C 1128.581 873.244, 1095.758 863.736, 1066.943 859.341 C 1051.652 857.008, 1046.354 856.672, 1024 856.612 C 1004.272 856.560, 996.358 856.925, 989.039 858.228 C 983.835 859.154, 979.410 859.744, 979.206 859.539 C 977.814 858.147, 1011.474 845.983, 1039.392 837.789 C 1052.857 833.837, 1063.684 830.298, 1063.454 829.925 C 1063.223 829.551, 1061.567 829.546, 1059.774 829.912 C 1057.981 830.279, 1054.261 830.267, 1051.507 829.887 C 1046.149 829.146, 1040.086 830.591, 1012.538 839.179 C 992.629 845.385, 964.654 858.115, 936.500 873.782 C 924.030 880.721, 923.170 881.440, 923.747 884.457 L 924.207 886.863 933.490 881.903 C 947.990 874.155, 967.307 867.911, 989.500 863.797 C 1000.327 861.791, 1036.837 862.129, 1050.500 864.363 C 1078.504 868.942, 1101.388 874.705, 1126.591 883.524 C 1141.571 888.765, 1178.477 903.616, 1193.154 910.309 L 1200.809 913.799 1238.154 900.873 C 1320.702 872.302, 1366.942 856.347, 1449 828.122 L 1483.500 816.256 1483.755 725.628 C 1483.959 653.427, 1483.755 635.012, 1482.755 635.061 C 1482.065 635.095, 1452.025 645.221, 1416 657.564 M 595 666.592 C 579.347 673.362, 574.855 696.793, 586.809 709.320 C 595.422 718.346, 609.128 720.092, 619.229 713.451 C 621.279 712.103, 623.590 711, 624.363 711 C 625.136 711, 629.518 712.877, 634.100 715.170 C 640.126 718.186, 644.241 721.178, 648.966 725.978 C 656.263 733.390, 659.977 739.576, 663.866 750.797 C 666.470 758.308, 666.604 758.474, 675.500 765.229 C 691.428 777.323, 709.521 785.300, 732 790.141 C 741.104 792.101, 745.491 792.407, 765 792.440 C 792.833 792.488, 799.654 791.302, 839.500 779.494 C 848.300 776.886, 859.325 773.971, 864 773.017 L 872.500 771.282 863.500 770.046 C 839.425 766.739, 821.119 761.195, 800.186 750.871 L 785.873 743.812 777.186 745.127 C 764.512 747.047, 740.408 746.800, 730.125 744.644 C 709.518 740.324, 692.296 733.024, 668 718.308 C 647.505 705.895, 641.772 702.728, 635.750 700.492 L 631 698.728 630.990 691.614 C 630.974 679.958, 625.138 670.592, 615.341 666.498 C 610.743 664.577, 599.540 664.628, 595 666.592 M 808.154 673.336 C 806.969 674.597, 806 676.073, 806 676.616 C 806 677.159, 811.513 683.396, 818.250 690.476 C 864.870 739.466, 924.955 779.101, 982.937 799.112 C 994.638 803.151, 1011.011 808, 1012.946 808 C 1013.641 808, 1014 802.570, 1014 792.072 L 1014 776.144 1008.250 775.565 C 997.903 774.524, 976.747 770.181, 964.156 766.514 C 914.785 752.131, 861.531 720.379, 820.501 680.861 L 810.308 671.043 808.154 673.336 M 601.352 678.117 C 599.620 678.605, 596.807 680.594, 595.102 682.537 C 589.408 689.021, 591.547 699.659, 599.283 703.330 C 605.538 706.298, 611.596 704.871, 615.885 699.419 C 619.187 695.222, 619.545 690.758, 617.003 685.506 C 613.963 679.227, 607.776 676.306, 601.352 678.117 M 1440 702.401 C 1437.525 703.098, 1428.868 705.818, 1420.761 708.447 L 1406.023 713.227 1406.535 743.864 C 1406.816 760.714, 1407.244 777.425, 1407.485 781 C 1407.759 785.076, 1407.591 786.928, 1407.033 785.966 C 1405.774 783.797, 1388.009 743.398, 1383.302 732 C 1381.144 726.775, 1378.956 722.612, 1378.439 722.748 C 1377.923 722.884, 1373 724.588, 1367.500 726.534 L 1357.500 730.072 1352.077 750.786 C 1344.497 779.743, 1340.138 794.847, 1340.040 792.500 C 1339.874 788.545, 1336.097 782.030, 1332.808 780.024 C 1330.989 778.915, 1327.996 778.006, 1326.157 778.004 L 1322.815 778 1327.263 773.053 C 1339.568 759.366, 1334.031 741.497, 1318.043 743.299 C 1315.558 743.579, 1305.120 746.653, 1294.848 750.130 L 1276.171 756.452 1276.586 775.226 C 1276.814 785.552, 1277.185 802.663, 1277.412 813.250 L 1277.824 832.500 1273.347 823 C 1268.154 811.983, 1261.199 796.242, 1254.453 780.240 C 1251.842 774.047, 1249.196 768.282, 1248.572 767.429 C 1247.567 766.055, 1246.151 766.315, 1236.244 769.685 L 1225.052 773.493 1222.897 782.996 C 1221.712 788.223, 1216.751 807.500, 1211.871 825.832 C 1206.992 844.165, 1203 859.495, 1203 859.898 C 1203 860.301, 1207.694 859.035, 1213.430 857.085 L 1223.861 853.539 1225.009 847.450 C 1225.641 844.102, 1226.460 840.919, 1226.829 840.377 C 1227.461 839.449, 1249.612 832, 1251.739 832 C 1252.283 832, 1253.500 834.020, 1254.443 836.490 C 1255.386 838.959, 1256.547 841.220, 1257.023 841.514 C 1258.375 842.350, 1317.593 822.428, 1322.762 819.399 C 1325.299 817.913, 1329.315 814.908, 1331.687 812.721 C 1336.103 808.651, 1336.777 808.826, 1334.972 813.574 C 1334.407 815.061, 1334.078 816.411, 1334.242 816.575 C 1334.406 816.739, 1339.256 815.212, 1345.020 813.182 L 1355.500 809.491 1356.863 802.926 L 1358.226 796.361 1369.408 792.680 C 1375.558 790.656, 1381.297 789, 1382.162 789 C 1383.101 789, 1384.558 790.983, 1385.781 793.928 L 1387.830 798.857 1396.665 795.611 C 1401.524 793.827, 1410.675 790.637, 1417 788.523 L 1428.500 784.679 1428.154 771.997 L 1427.807 759.314 1432.654 758.027 C 1440.814 755.859, 1451.271 750.367, 1455.892 745.821 C 1462.778 739.046, 1465.504 732.272, 1465.480 722 C 1465.462 714.823, 1465.074 712.822, 1462.987 709.147 C 1458.748 701.680, 1450.826 699.355, 1440 702.401 M 1431 720.413 L 1427.500 721.675 1427.217 732.837 C 1427.042 739.766, 1427.312 744, 1427.930 744 C 1431.042 744, 1440.268 739.471, 1442.458 736.867 C 1444.538 734.396, 1445 732.797, 1445 728.078 C 1445 723.760, 1444.540 721.894, 1443.171 720.655 C 1441.038 718.724, 1435.966 718.624, 1431 720.413 M 1367.615 751.188 C 1367.252 753.559, 1365.804 760.826, 1364.397 767.336 C 1362.989 773.845, 1361.987 779.304, 1362.169 779.467 C 1362.538 779.797, 1378.084 775.250, 1378.702 774.631 C 1379.164 774.170, 1370.053 748.877, 1368.997 747.688 C 1368.600 747.241, 1367.978 748.816, 1367.615 751.188 M 1301.386 762.617 L 1297.272 764.076 1297.716 771.288 C 1297.960 775.255, 1298.236 778.817, 1298.330 779.204 C 1298.648 780.521, 1310.458 775.044, 1312.211 772.767 C 1313.170 771.520, 1313.966 768.828, 1313.978 766.785 C 1314.012 761.014, 1309.820 759.626, 1301.386 762.617 M 1069.195 772.190 C 1067.377 772.682, 1063.327 773.405, 1060.195 773.796 L 1054.500 774.507 1054.231 795.620 L 1053.961 816.733 1062.798 817.867 C 1067.659 818.490, 1072.167 819, 1072.818 819 C 1073.694 819, 1074 812.929, 1074 795.559 C 1074 782.666, 1073.662 771.933, 1073.250 771.706 C 1072.838 771.479, 1071.013 771.697, 1069.195 772.190 M 1024.667 776.667 C 1023.945 777.388, 1023.718 811, 1024.435 811 C 1024.926 811, 1038.307 813.717, 1041.750 814.516 L 1044 815.038 1044 795.519 L 1044 776 1034.667 776 C 1029.533 776, 1025.033 776.300, 1024.667 776.667 M 1236.679 793 C 1236.378 794.375, 1234.749 801.535, 1233.060 808.911 C 1231.371 816.288, 1230.207 822.541, 1230.473 822.807 C 1231.045 823.379, 1246.900 818.978, 1247.426 818.102 C 1247.729 817.596, 1240.965 799.020, 1238.104 792.500 C 1237.277 790.614, 1237.195 790.642, 1236.679 793 M 1302.250 792.662 L 1298 794.167 1298 803.663 L 1298 813.159 1301.250 812.488 C 1303.037 812.120, 1306.878 810.752, 1309.785 809.448 C 1313.980 807.568, 1315.389 806.312, 1316.623 803.359 C 1318.228 799.520, 1317.905 794.795, 1315.872 792.345 C 1314.417 790.592, 1307.654 790.749, 1302.250 792.662 M 571.301 830.015 C 556.559 834.833, 548.660 845.923, 545.915 865.653 C 543.662 881.857, 548.581 899.620, 557.662 908.072 C 566.303 916.114, 573.263 918.362, 587.833 917.817 C 596.908 917.477, 599.432 916.993, 604.747 914.573 C 621.727 906.843, 630.344 884.636, 625.554 860.954 C 622.512 845.917, 615.743 836.519, 604.125 831.200 C 596.266 827.602, 580.434 827.030, 571.301 830.015 M 644.077 873.610 L 644.028 917.220 665.764 916.752 C 688.802 916.256, 692.954 915.517, 701.006 910.478 C 712.445 903.318, 718.879 887.523, 717.699 869.500 C 716.665 853.715, 711.464 842.971, 701.752 836.552 C 693.402 831.033, 687.503 830, 664.353 830 L 644.127 830 644.077 873.610 M 1432 849.944 C 1403.675 859.714, 1356.650 875.883, 1327.500 885.876 C 1298.350 895.869, 1273.825 904.291, 1273 904.592 C 1272.122 904.913, 1278.542 908.533, 1288.474 913.320 C 1297.810 917.819, 1325.035 930.987, 1348.974 942.583 L 1392.500 963.665 1392.765 994.434 C 1392.971 1018.388, 1393.303 1025.088, 1394.265 1024.683 C 1394.944 1024.396, 1403.150 1020.940, 1412.500 1017.001 C 1421.850 1013.062, 1439.625 1005.637, 1452 1000.500 C 1464.375 995.363, 1476.638 990.203, 1479.250 989.033 L 1484 986.906 1484 909.453 C 1484 866.854, 1483.888 832.041, 1483.750 832.091 C 1483.612 832.141, 1460.325 840.175, 1432 849.944 M 810.750 835.749 L 805 836.100 805 840.410 C 805 842.781, 804.714 846.809, 804.364 849.360 L 803.728 854 798.364 854 L 793 854 793 859.500 L 793 865 798.413 865 L 803.825 865 804.172 885.750 C 804.563 909.112, 805.049 911.002, 811.726 915.153 C 814.972 917.172, 816.786 917.500, 824.700 917.500 C 830.077 917.500, 834.359 917.041, 835.004 916.396 C 835.708 915.692, 835.865 913.461, 835.436 910.231 L 834.765 905.169 829.468 905.715 C 824.724 906.205, 823.901 905.992, 821.586 903.677 L 819 901.091 819 883.088 L 819 865.084 826.750 864.792 L 834.500 864.500 834.500 859 L 834.500 853.500 826.789 853.857 L 819.078 854.214 818.789 844.938 C 818.627 839.730, 818.061 835.604, 817.500 835.530 C 816.950 835.457, 813.913 835.556, 810.750 835.749 M 577.764 841.996 C 566.835 845.287, 561.037 856.239, 561.012 873.645 C 560.989 889.311, 566.786 900.843, 576.560 904.576 C 583.380 907.181, 593.909 906.146, 599.326 902.338 C 607.648 896.490, 611.744 882.598, 609.926 866.388 C 608.460 853.316, 603.141 845.165, 594.101 842.138 C 590.236 840.844, 581.832 840.771, 577.764 841.996 M 660 873.480 L 660 904.201 672.750 903.843 C 683.821 903.533, 686.029 903.184, 689.517 901.190 C 697.436 896.663, 701 888.069, 701 873.500 C 701 858.628, 697.282 850.263, 688.692 845.807 C 685.249 844.020, 682.312 843.554, 672.250 843.195 L 660 842.759 660 873.480 M 750.716 853.129 C 744.909 853.940, 738.163 856.498, 734.575 859.252 C 732.695 860.695, 732.714 860.836, 735.402 865.422 C 736.914 868.004, 738.455 869.954, 738.826 869.757 C 746.347 865.750, 750.116 864.596, 755.830 864.551 C 761.743 864.503, 762.352 864.715, 765.080 867.766 C 767.272 870.217, 768 872.025, 768 875.016 L 768 879 761.750 879.006 C 741.790 879.024, 730.618 885.337, 729.263 897.363 C 727.879 909.634, 736.138 917.930, 749.782 917.978 C 757.126 918.004, 762.224 916.134, 766.750 911.753 L 770 908.608 770 912.804 L 770 917 776.500 917 L 783 917 783 893.179 L 783 869.359 780.250 863.929 C 777.914 859.318, 776.671 858.098, 772 855.830 C 765.755 852.798, 759.121 851.957, 750.716 853.129 M 859.951 854.362 C 855.527 855.555, 848 859.575, 848 860.744 C 848 861.563, 852.999 870, 853.485 870 C 853.705 870, 855.404 869.104, 857.261 868.009 C 859.117 866.913, 862.882 865.591, 865.627 865.071 C 875.731 863.155, 883 867.271, 883 874.908 L 883 878.705 872.327 879.395 C 859.103 880.250, 852.052 882.801, 847.593 888.343 C 844.740 891.888, 844.500 892.779, 844.500 899.843 C 844.500 908.890, 846.561 912.704, 853.334 916.189 C 861.694 920.490, 876.034 918.314, 881.407 911.928 C 882.762 910.318, 884.125 909, 884.435 909 C 884.746 909, 885 910.800, 885 913 L 885 917 891.500 917 L 898 917 897.994 894.250 C 897.991 881.298, 897.532 869.854, 896.928 867.679 C 895.316 861.874, 889.711 856.289, 883.707 854.506 C 877.685 852.717, 866.304 852.649, 859.951 854.362 M 1004.500 877.024 C 979.684 878.828, 954.175 886.452, 930.332 899.192 C 925.109 901.983, 920.606 904.994, 920.326 905.883 C 918.186 912.674, 912.133 922.824, 907.398 927.558 C 900.505 934.452, 892.968 938.246, 880.989 940.852 C 875.770 941.988, 864.975 944.482, 857 946.395 C 849.025 948.308, 833.528 951.747, 822.561 954.038 C 799.054 958.949, 790.652 961.583, 778.500 967.855 C 761.605 976.575, 751.036 989.943, 747.345 1007.260 C 745.249 1017.097, 746.088 1036.402, 749.593 1059 C 751.956 1074.230, 752.321 1079.645, 752.404 1100.747 C 752.457 1114.083, 752.587 1124.995, 752.693 1124.997 C 752.799 1124.999, 754.492 1124.053, 756.454 1122.894 C 760.913 1120.264, 763.303 1120.801, 769.722 1125.874 C 779.403 1133.527, 789.690 1148.852, 793.930 1161.939 C 796.333 1169.358, 798.612 1180.750, 799.486 1189.723 L 800.093 1195.946 795.766 1197.980 C 788.956 1201.181, 784.360 1205.567, 781.314 1211.770 C 777.581 1219.371, 777.349 1230.236, 780.779 1236.722 C 786.525 1247.586, 795.776 1253.464, 806.932 1253.340 C 821.092 1253.182, 832.171 1244.125, 835.026 1230.375 C 837.948 1216.297, 828.157 1200.812, 813.907 1196.975 C 810.157 1195.965, 809.999 1195.754, 809.971 1191.711 C 809.931 1186.017, 805.966 1163.898, 801.596 1145 C 796.111 1121.272, 794.662 1109.664, 795.295 1094.500 C 796.422 1067.496, 805.504 1047.603, 825.989 1027.274 C 833.131 1020.187, 835 1019.289, 835 1022.947 C 835 1028.982, 842.677 1049.421, 848.402 1058.629 L 850.969 1062.758 847.493 1067.129 C 842.380 1073.559, 840.672 1079.604, 841.208 1089.367 C 841.753 1099.282, 844.145 1104.522, 851.175 1111.201 C 858.191 1117.867, 865.151 1120.318, 875.500 1119.770 C 888.395 1119.086, 897.814 1113.187, 903.076 1102.497 C 909.169 1090.121, 907.923 1076.871, 899.724 1066.846 C 894.739 1060.752, 885.584 1055.307, 878.775 1054.387 C 874.126 1053.759, 874.014 1053.658, 871.842 1048.124 C 868.593 1039.849, 868.551 1021.231, 871.759 1012 C 876.550 998.216, 886.146 986.156, 900.122 976.357 C 904.315 973.417, 908.191 970.447, 908.736 969.756 C 909.281 969.065, 910.523 965.125, 911.497 961 C 915.884 942.414, 923.972 928.087, 937.249 915.383 C 950.181 903.008, 962.812 895.443, 979.500 890.078 C 997.263 884.367, 1018.999 881, 1038.106 881 L 1047 881 1047 969.417 L 1047 1057.833 1069.250 1069.297 C 1081.487 1075.601, 1113.550 1092.018, 1140.500 1105.778 C 1167.450 1119.538, 1204.093 1138.267, 1221.929 1147.398 C 1239.765 1156.529, 1254.502 1164, 1254.679 1164 C 1254.856 1164, 1255 1132.111, 1255 1093.136 L 1255 1022.272 1224.750 1006.918 C 1208.112 998.473, 1183.570 986.168, 1170.212 979.574 L 1145.923 967.585 1146.045 937.114 L 1146.166 906.643 1143.833 905.446 C 1139.788 903.372, 1107.032 892.232, 1094 888.499 C 1074.434 882.895, 1049.382 878.262, 1032.170 877.066 C 1023.739 876.480, 1016.314 876.067, 1015.670 876.148 C 1015.027 876.230, 1010 876.624, 1004.500 877.024 M 759 889.026 C 751.206 889.645, 745.689 891.762, 744.621 894.545 C 743.683 896.990, 743.876 901.899, 744.992 903.986 C 747.587 908.833, 758.961 908.428, 765.092 903.269 C 767.693 901.081, 768 900.204, 768 894.970 C 768 891.751, 767.663 888.963, 767.250 888.774 C 766.837 888.585, 763.125 888.699, 759 889.026 M 865.313 890.102 C 861.420 891.229, 858 895.349, 858 898.912 C 858 907.954, 871.304 910.664, 879.955 903.385 C 882.716 901.061, 883 900.271, 883 894.911 L 883 889 875.750 889.090 C 871.763 889.140, 867.066 889.595, 865.313 890.102 M 1226.518 919.934 L 1200.537 928.728 1180.911 920.364 C 1170.117 915.764, 1160.996 912, 1160.643 912 C 1160.289 912, 1160 922.564, 1160 935.475 L 1160 958.951 1203.250 980.597 C 1227.037 992.503, 1248.412 1003.357, 1250.750 1004.717 L 1255 1007.190 1255 959.095 C 1255 921.248, 1254.734 911.015, 1253.750 911.071 C 1253.063 911.109, 1240.808 915.098, 1226.518 919.934 M 1269 964.500 C 1269 988.425, 1269.277 1008, 1269.615 1008 C 1270.205 1008, 1286.402 1001.186, 1340.250 978.284 C 1353.862 972.494, 1365 967.434, 1365 967.039 C 1365 966.378, 1270.974 921, 1269.605 921 C 1269.272 921, 1269 940.575, 1269 964.500 M 719 939.294 C 716.525 940.507, 711.568 943.993, 707.984 947.040 C 692.796 959.954, 671.918 971.669, 657.135 975.574 C 654.036 976.392, 648.077 977.335, 643.893 977.668 C 636.486 978.258, 636.270 978.211, 635.677 975.887 C 634.625 971.766, 629.170 966.226, 623.541 963.563 C 609.296 956.824, 592.950 963.091, 587.491 977.385 C 585.333 983.035, 585.807 994.823, 588.392 999.803 C 590.762 1004.370, 596.807 1010.206, 601.449 1012.409 C 609.807 1016.375, 622.058 1014.342, 629.552 1007.745 C 634.816 1003.112, 637.533 998.296, 638.492 991.899 L 639.175 987.345 646.338 985.560 C 655.932 983.169, 672.636 982.380, 679.855 983.978 C 682.960 984.665, 685.768 985.385, 686.096 985.578 C 687.229 986.243, 677.349 1014.524, 673.198 1022.500 C 665.278 1037.716, 654.642 1048.131, 639.500 1055.497 C 627.145 1061.508, 620.669 1063.068, 605.433 1063.703 L 592.367 1064.248 590.668 1059.800 C 585.193 1045.464, 569.225 1035.707, 554.099 1037.454 C 541.454 1038.915, 529.325 1048.215, 524.958 1059.798 C 523.204 1064.450, 522.882 1067.066, 523.207 1074 C 523.869 1088.083, 530.266 1098.421, 542.216 1104.715 C 546.974 1107.222, 548.495 1107.499, 557.500 1107.499 C 566.994 1107.500, 567.820 1107.326, 573.826 1104.070 C 583.994 1098.557, 590.202 1089.676, 592.265 1077.690 L 593.331 1071.500 611.415 1071.282 C 653.671 1070.772, 679.664 1066.427, 702.561 1056.045 C 706.255 1054.370, 709.420 1053, 709.595 1053 C 709.770 1053, 711.076 1056.681, 712.497 1061.181 C 715.383 1070.317, 716.024 1083.484, 713.956 1091.165 C 708.409 1111.765, 688.458 1127.877, 660.057 1134.693 L 653.126 1136.356 648.592 1131.314 C 631.880 1112.726, 602 1123.118, 602 1147.518 C 602 1156.216, 604.453 1162.548, 609.952 1168.048 C 617.325 1175.420, 626.273 1177.593, 636.612 1174.523 C 644.988 1172.035, 650.574 1166.022, 654.813 1154.926 C 655.685 1152.645, 656.802 1152.156, 664.648 1150.626 C 681.092 1147.418, 704.143 1140.081, 721.250 1132.611 L 725 1130.973 725 1134.856 C 725 1144.671, 719.589 1166.920, 713.849 1180.709 C 709.882 1190.236, 701.325 1204.430, 693.398 1214.630 C 686.577 1223.406, 669.465 1240, 667.236 1240 C 666.484 1240, 664.952 1239.510, 663.832 1238.910 C 660.147 1236.938, 649.179 1235.927, 642.730 1236.966 C 613.211 1241.720, 600.994 1277.534, 621.099 1300.376 C 623.571 1303.184, 627.664 1306.185, 631.787 1308.213 C 638.060 1311.299, 639.112 1311.500, 648.984 1311.494 C 658.487 1311.488, 660.055 1311.215, 665.265 1308.664 C 685.075 1298.962, 692.451 1276.649, 682.443 1256.704 L 680.036 1251.907 683.268 1248.368 C 693.261 1237.427, 707.498 1214.135, 715.278 1196 C 733.106 1154.446, 736.914 1116.934, 728.983 1061 C 725.181 1034.188, 724.598 1013.294, 727.309 1001 C 732.100 979.269, 747.304 962.013, 770.148 952.378 C 778.919 948.679, 795.119 943.795, 804.781 941.936 C 808.235 941.271, 810.913 940.579, 810.731 940.398 C 810.348 940.015, 768.918 938.323, 742 937.591 C 724.407 937.113, 723.279 937.196, 719 939.294 M 608.604 974.063 C 602.155 975.938, 597.155 983.876, 598.517 990.078 C 599.487 994.492, 604.544 999.800, 608.896 1000.972 C 617.543 1003.300, 626 996.779, 626 987.784 C 626 978.891, 616.843 971.668, 608.604 974.063 M 1360 985.177 C 1336.940 994.972, 1281.211 1018.202, 1274.500 1020.817 L 1269.500 1022.765 1269.243 1094.501 C 1269 1162.524, 1269.078 1166.210, 1270.743 1165.713 C 1271.710 1165.424, 1290.275 1157.700, 1312 1148.547 C 1333.725 1139.394, 1356.969 1129.645, 1363.654 1126.883 C 1370.338 1124.121, 1376.530 1121.330, 1377.414 1120.681 C 1378.866 1119.613, 1378.995 1112.719, 1378.760 1048.410 L 1378.500 977.320 1360 985.177 M 550.459 1055.880 C 537.710 1061.670, 535.666 1077.353, 546.428 1086.802 C 558.291 1097.219, 577.105 1087.338, 575.782 1071.386 C 574.688 1058.194, 562.199 1050.547, 550.459 1055.880 M 865.389 1071.905 C 859.769 1075.331, 857.500 1079.674, 857.500 1087 C 857.500 1094.700, 859.875 1098.875, 866.044 1102.023 C 882.381 1110.357, 898.808 1090.101, 886.802 1076.428 C 885.098 1074.486, 882.442 1072.246, 880.901 1071.449 C 876.911 1069.386, 869.145 1069.614, 865.389 1071.905 M 1047.410 1130.250 C 1047.612 1154.588, 1047.827 1187.111, 1047.888 1202.525 L 1048 1230.549 1150.870 1282.275 C 1207.449 1310.724, 1254.032 1334, 1254.389 1334 C 1254.745 1334, 1255.012 1301.890, 1254.980 1262.645 L 1254.924 1191.290 1219.212 1173.141 C 1199.570 1163.159, 1171.800 1149.010, 1157.500 1141.698 C 1088.911 1106.628, 1048.234 1086, 1047.667 1086 C 1047.325 1086, 1047.209 1105.912, 1047.410 1130.250 M 620.921 1137.274 C 618.836 1138.679, 616.799 1141.353, 615.589 1144.274 C 613.644 1148.967, 613.644 1149.033, 615.589 1153.726 C 619.999 1164.369, 632.879 1166.326, 639.885 1157.419 C 643.086 1153.349, 643.497 1148.911, 641.160 1143.629 C 637.511 1135.380, 628.112 1132.428, 620.921 1137.274 M 1370 1150.953 C 1366.425 1152.491, 1355.850 1156.924, 1346.500 1160.805 C 1337.150 1164.686, 1316 1173.500, 1299.500 1180.392 L 1269.500 1192.923 1269.243 1264.571 C 1269.038 1321.786, 1269.240 1336.111, 1270.243 1335.685 C 1272.472 1334.738, 1367.312 1294.864, 1372.914 1292.519 L 1378.329 1290.253 1378.794 1219.126 C 1379.186 1159.083, 1379.044 1148.012, 1377.879 1148.079 C 1377.121 1148.122, 1373.575 1149.416, 1370 1150.953 M 801.500 1210.490 C 786.153 1215.961, 789.080 1236.965, 805.546 1239.526 C 810.764 1240.338, 817.546 1236.837, 820.145 1231.991 C 826.660 1219.843, 814.524 1205.848, 801.500 1210.490 M 639.748 1257.069 C 632.119 1261.097, 628.005 1272.426, 630.941 1281.322 C 633.149 1288.011, 642.155 1293.977, 650.071 1293.994 C 651.485 1293.997, 655.085 1292.763, 658.071 1291.250 C 668.912 1285.759, 671.806 1273.428, 664.723 1262.916 C 659.664 1255.410, 648.044 1252.689, 639.748 1257.069 M 468.907 1507.090 C 445.329 1509.094, 428.204 1522.235, 420.094 1544.548 C 415.991 1555.835, 414.590 1566.828, 415.329 1581.939 C 416.434 1604.519, 421.256 1617.244, 433.342 1629.466 C 444.925 1641.178, 458.137 1646.155, 477.568 1646.125 C 497.111 1646.094, 509.844 1641.208, 522.086 1629.040 C 533.789 1617.409, 539.285 1603.762, 540.648 1582.952 C 542.237 1558.708, 535.674 1536.778, 522.827 1523.398 C 510.481 1510.541, 492.451 1505.088, 468.907 1507.090 M 1063.286 1508.451 C 1049.189 1512.856, 1041.630 1523.233, 1041.762 1538 C 1041.838 1546.588, 1044.302 1554.679, 1049.133 1562.207 C 1050.851 1564.885, 1052.087 1567.180, 1051.879 1567.308 C 1040.146 1574.491, 1032.630 1581.980, 1028.295 1590.808 C 1025.727 1596.038, 1025.500 1597.434, 1025.500 1608 C 1025.500 1618.349, 1025.765 1620.065, 1028.148 1625.148 C 1033.102 1635.715, 1042.674 1642.763, 1055.869 1645.560 C 1072.378 1649.059, 1091.428 1645.166, 1103.125 1635.901 L 1107.078 1632.770 1112.965 1638.385 L 1118.852 1644 1131.426 1644 C 1138.342 1644, 1144 1643.628, 1144 1643.174 C 1144 1642.720, 1142.847 1641.265, 1141.438 1639.941 C 1140.028 1638.617, 1137.952 1635.951, 1136.823 1634.017 C 1135.695 1632.083, 1131.641 1627.575, 1127.815 1624 L 1120.859 1617.500 1123.896 1611 C 1126.876 1604.622, 1131.202 1589.681, 1132.521 1581.213 L 1133.188 1576.925 1123.396 1577.213 L 1113.604 1577.500 1111.890 1586.217 C 1110.051 1595.572, 1108.217 1601.998, 1107.008 1603.321 C 1106.296 1604.101, 1098.278 1595.097, 1085.696 1579.389 C 1082.563 1575.479, 1080 1572.044, 1080 1571.757 C 1080 1571.470, 1082.894 1569.349, 1086.431 1567.045 C 1099.448 1558.564, 1105.924 1548.993, 1106.749 1537.016 C 1107.674 1523.600, 1099.818 1512.176, 1087.240 1508.647 C 1080.292 1506.698, 1069.187 1506.607, 1063.286 1508.451 M 1253.644 1510 L 1240.787 1510.500 1237.850 1518.500 C 1225.046 1553.368, 1213.883 1584.094, 1208.967 1598 C 1202.012 1617.676, 1194.445 1638.804, 1193.466 1641.281 C 1192.810 1642.941, 1193.630 1643.042, 1205.544 1642.781 L 1218.326 1642.500 1223.494 1627.663 C 1226.337 1619.503, 1229.301 1612.423, 1230.081 1611.929 C 1230.862 1611.435, 1242.086 1611.024, 1255.023 1611.015 L 1278.547 1611 1283.845 1627 L 1289.144 1643 1302.072 1643 C 1310.133 1643, 1315 1642.619, 1315 1641.987 C 1315 1641.038, 1295.782 1587, 1276.648 1534.147 C 1271.999 1521.303, 1267.813 1510.503, 1267.347 1510.147 C 1266.881 1509.791, 1260.715 1509.725, 1253.644 1510 M 1577 1576 L 1577 1643 1589.636 1643 L 1602.272 1643 1601.800 1620.102 L 1601.328 1597.203 1620.914 1596.760 C 1637.503 1596.386, 1641.518 1595.986, 1647.155 1594.148 C 1660.454 1589.812, 1669.663 1580.204, 1673.539 1566.620 C 1675.396 1560.116, 1675.168 1543.500, 1673.134 1536.986 C 1669.857 1526.494, 1660.785 1516.978, 1650.287 1513.021 C 1641.511 1509.713, 1633.597 1509.015, 1604.750 1509.008 L 1577 1509 1577 1576 M 567 1576.574 L 567 1643.147 599.250 1642.773 C 629.641 1642.421, 631.903 1642.267, 638.500 1640.102 C 649.336 1636.545, 656.351 1632.345, 662.973 1625.450 C 669.828 1618.311, 673.868 1610.593, 677.078 1598.500 C 680.090 1587.157, 680.145 1563.888, 677.186 1552.856 C 671.324 1530.998, 657.804 1517.449, 636.391 1511.972 C 629.535 1510.219, 625.261 1510, 597.840 1510 L 567 1510 567 1576.574 M 1330.999 1576.691 L 1330.998 1643.500 1365.749 1642.959 C 1399.161 1642.438, 1400.767 1642.325, 1407.437 1640.007 C 1415.876 1637.074, 1421.445 1633.001, 1425.736 1626.624 C 1429.838 1620.529, 1431.303 1615.319, 1431.393 1606.500 C 1431.488 1597.238, 1428.824 1589.217, 1423.729 1583.430 C 1419.788 1578.952, 1411.729 1574.020, 1408.283 1573.978 C 1407.302 1573.966, 1408.525 1573.039, 1411 1571.919 C 1416.845 1569.273, 1420.559 1565.682, 1423.842 1559.500 C 1426.207 1555.050, 1426.499 1553.401, 1426.499 1544.500 C 1426.500 1535.566, 1426.201 1533.891, 1423.694 1528.786 C 1420.267 1521.807, 1413.720 1515.841, 1406.147 1512.796 C 1400.717 1510.613, 1399.162 1510.514, 1365.750 1510.204 L 1331 1509.882 1330.999 1576.691 M 1483.827 1517.750 C 1482.357 1522.013, 1477.262 1536.300, 1472.505 1549.500 C 1467.747 1562.700, 1461.425 1580.250, 1458.454 1588.500 C 1455.484 1596.750, 1449.965 1612.388, 1446.191 1623.250 L 1439.329 1643 1452.045 1643 L 1464.761 1643 1470.257 1627.250 L 1475.754 1611.500 1500.258 1611.233 L 1524.762 1610.966 1529.881 1626.035 C 1532.697 1634.323, 1535 1641.531, 1535 1642.052 C 1535 1642.602, 1540.662 1643, 1548.500 1643 C 1555.925 1643, 1562 1642.863, 1562 1642.696 C 1562 1641.064, 1522.564 1531.736, 1515.127 1512.750 L 1514.050 1510 1500.275 1510 L 1486.500 1510.001 1483.827 1517.750 M 825.365 1519.784 L 815.231 1520.067 814.589 1528.784 C 814.237 1533.578, 813.692 1539.638, 813.380 1542.250 L 812.812 1547 804.906 1547 L 797 1547 797 1556.067 L 797 1565.134 803.750 1564.991 C 807.462 1564.913, 811.038 1564.882, 811.697 1564.924 C 812.591 1564.981, 812.970 1572.777, 813.197 1595.780 C 813.500 1626.551, 813.501 1626.562, 816.055 1631.521 C 818.917 1637.079, 825.169 1642.377, 830.775 1643.995 C 838.050 1646.095, 847.169 1646.331, 853.946 1644.593 C 857.492 1643.684, 860.566 1642.767, 860.778 1642.555 C 860.991 1642.343, 860.790 1638.667, 860.332 1634.387 L 859.500 1626.606 851.356 1626.553 C 844.675 1626.509, 842.809 1626.141, 840.968 1624.500 C 836.400 1620.428, 836 1617.696, 836 1590.532 L 836 1565 847.500 1565 L 859 1565 859 1555.500 L 859 1546 847.528 1546 L 836.056 1546 835.778 1532.750 L 835.500 1519.500 825.365 1519.784 M 1069.418 1523.969 C 1063.013 1526.560, 1059.775 1535.842, 1062.347 1544.240 C 1063.906 1549.333, 1068.613 1558, 1069.820 1558 C 1072.558 1558, 1082.552 1548.697, 1085.085 1543.790 C 1087.363 1539.376, 1087.563 1532.989, 1085.544 1529.085 C 1083.045 1524.252, 1075.016 1521.704, 1069.418 1523.969 M 469.270 1527.998 C 448.842 1532.301, 438.855 1550.241, 440.319 1580 C 441.238 1598.682, 445.423 1609.801, 454.564 1617.847 C 460.986 1623.500, 467.325 1625.463, 479.144 1625.459 C 488.176 1625.457, 489.219 1625.236, 495.609 1621.978 C 503.849 1617.778, 508.909 1611.269, 512.291 1600.521 C 514.197 1594.464, 514.500 1591.235, 514.500 1577 C 514.500 1562.692, 514.202 1559.553, 512.258 1553.371 C 508.340 1540.915, 499.920 1531.650, 490.157 1529.055 C 484.483 1527.547, 473.943 1527.013, 469.270 1527.998 M 591.667 1530.667 C 591.300 1531.033, 591 1552, 591 1577.260 L 591 1623.187 609.750 1622.784 C 626.190 1622.431, 629.075 1622.120, 633.170 1620.261 C 647.570 1613.721, 654.017 1600.477, 654.063 1577.343 C 654.121 1547.823, 644.673 1533.851, 622.722 1531 C 614.373 1529.915, 592.651 1529.682, 591.667 1530.667 M 1355.226 1548.250 L 1355.500 1565.500 1372 1565.500 C 1387.092 1565.500, 1388.890 1565.308, 1393.066 1563.250 C 1399.038 1560.307, 1402 1555.201, 1402 1547.848 C 1402 1540.758, 1399.484 1536.182, 1393.987 1533.275 C 1389.990 1531.161, 1388.458 1531, 1372.319 1531 L 1354.953 1531 1355.226 1548.250 M 1602 1554.107 L 1602 1577.214 1617.250 1576.787 C 1634.499 1576.303, 1638.977 1575.068, 1643.933 1569.424 C 1650.937 1561.447, 1650.826 1545.427, 1643.711 1537.324 C 1638.726 1531.646, 1636.103 1531, 1618.032 1531 L 1602 1531 1602 1554.107 M 1490.869 1562.815 L 1481.371 1591.500 1490.686 1591.786 C 1495.808 1591.944, 1504.220 1591.944, 1509.377 1591.786 L 1518.754 1591.500 1509.560 1562.815 L 1500.367 1534.130 1490.869 1562.815 M 1253 1536.377 C 1253 1537.134, 1249.144 1549.553, 1244.432 1563.976 C 1239.720 1578.398, 1236.156 1590.491, 1236.513 1590.849 C 1237.700 1592.039, 1272 1592.266, 1272 1591.083 C 1272 1590.488, 1268.605 1579.538, 1264.457 1566.751 C 1260.308 1553.963, 1256.429 1541.588, 1255.838 1539.250 C 1254.822 1535.234, 1253 1533.390, 1253 1536.377 M 734.500 1545.032 C 725.156 1546.017, 719.867 1547.538, 711.974 1551.513 C 702.154 1556.459, 702.093 1556.624, 707.037 1564.945 C 709.342 1568.825, 711.451 1572, 711.724 1572 C 711.998 1572, 715.519 1570.370, 719.550 1568.378 C 725.872 1565.253, 728.127 1564.685, 735.965 1564.238 C 743.359 1563.816, 745.796 1564.055, 749.043 1565.519 C 754.438 1567.952, 757.052 1572.441, 757.301 1579.701 L 757.500 1585.500 743.500 1586.085 C 723.324 1586.927, 713.796 1589.576, 706.177 1596.459 C 700.161 1601.894, 697.632 1607.960, 697.614 1617 C 697.595 1626.382, 699.199 1631.176, 704.155 1636.553 C 710.341 1643.263, 716.437 1645.448, 729 1645.456 C 738.432 1645.462, 740.074 1645.183, 745.143 1642.710 C 748.246 1641.195, 752.643 1637.941, 754.913 1635.478 C 757.184 1633.015, 759.257 1631, 759.521 1631 C 759.784 1631, 760 1632.294, 760 1633.875 C 760 1635.456, 760.281 1638.156, 760.625 1639.875 L 761.250 1643 771.125 1643 L 781 1643 781 1610.332 C 781 1591.171, 780.548 1575.066, 779.906 1571.380 C 776.542 1552.061, 759.827 1542.362, 734.500 1545.032 M 901.656 1546.581 C 895.418 1548.092, 880 1555.610, 880 1557.142 C 880 1558.243, 888.118 1572, 888.768 1572 C 889.017 1572, 892.608 1570.326, 896.748 1568.280 C 903.583 1564.902, 905.161 1564.529, 913.888 1564.222 C 922.155 1563.932, 923.947 1564.166, 926.696 1565.895 C 931.305 1568.794, 933.111 1572.129, 933.722 1578.876 L 934.262 1584.823 928.881 1585.370 C 925.921 1585.670, 919 1586.136, 913.500 1586.404 C 897.366 1587.192, 884.769 1592.195, 879.053 1600.085 C 870.709 1611.604, 873.483 1632.510, 884.325 1639.824 C 891.480 1644.650, 894.726 1645.500, 906 1645.500 C 915.676 1645.500, 916.963 1645.265, 922.401 1642.510 C 925.744 1640.816, 929.853 1637.665, 931.880 1635.239 C 935.929 1630.395, 936.802 1631.002, 936.930 1638.750 L 937 1643 947.056 1643 L 957.112 1643 956.806 1605.750 L 956.500 1568.500 953.809 1563 C 950.629 1556.499, 949.692 1555.318, 944.781 1551.614 C 938.697 1547.026, 930.388 1544.988, 918.161 1545.083 C 912.297 1545.129, 904.870 1545.803, 901.656 1546.581 M 1055.080 1586.760 C 1050.869 1590.971, 1048.840 1593.965, 1047.534 1597.897 C 1043.761 1609.256, 1047.941 1621.037, 1057.485 1625.945 C 1066.663 1630.665, 1084.339 1628.739, 1092.955 1622.080 L 1095.410 1620.182 1091.955 1616.164 C 1080.046 1602.314, 1068.005 1587.970, 1065.583 1584.750 C 1064.032 1582.688, 1062.330 1581, 1061.801 1581 C 1061.273 1581, 1058.248 1583.592, 1055.080 1586.760 M 1356 1604.095 L 1356 1623.191 1374.250 1622.792 C 1398.932 1622.253, 1403.107 1620.405, 1406.049 1608.718 C 1408.489 1599.030, 1403.108 1588.511, 1394.488 1586.118 C 1392.286 1585.507, 1382.777 1585.009, 1373.250 1585.006 L 1356 1585 1356 1604.095 M 739.500 1600.969 C 726.531 1602.472, 721.005 1606.428, 720.315 1614.703 C 719.836 1620.457, 721.307 1623.616, 725.912 1626.720 C 732.471 1631.140, 745.915 1628.855, 752.998 1622.117 L 757 1618.310 757 1609.155 L 757 1600 751.250 1600.137 C 748.087 1600.212, 742.800 1600.587, 739.500 1600.969 M 913.791 1601.081 C 901.682 1602.856, 896.366 1608.055, 897.251 1617.259 C 897.619 1621.093, 898.425 1622.886, 900.884 1625.343 C 903.884 1628.341, 904.433 1628.500, 911.772 1628.500 C 918.179 1628.500, 920.352 1628.052, 924.484 1625.877 C 932.109 1621.864, 933.437 1619.459, 933.849 1608.928 L 934.199 1600 926.849 1600.122 C 922.807 1600.189, 916.931 1600.621, 913.791 1601.081 M 1387.412 1708.917 C 1387.185 1709.146, 1387 1738.733, 1387 1774.667 L 1387 1840 1396.500 1840 L 1406 1840 1406 1824.912 L 1406 1809.824 1411.429 1804.175 C 1414.415 1801.067, 1417.065 1798.744, 1417.318 1799.012 C 1417.570 1799.281, 1421.946 1805.575, 1427.040 1813 C 1432.135 1820.425, 1438.593 1829.537, 1441.391 1833.250 L 1446.479 1840 1457.240 1840 C 1463.158 1840, 1468 1839.770, 1468 1839.489 C 1468 1839.208, 1464.943 1834.820, 1461.207 1829.739 C 1457.471 1824.658, 1448.889 1812.712, 1442.137 1803.193 L 1429.860 1785.886 1444.627 1770.193 C 1452.749 1761.562, 1460.744 1753.037, 1462.393 1751.250 L 1465.392 1748 1454.446 1748.018 L 1443.500 1748.037 1424.750 1767.481 L 1406 1786.925 1406 1748.034 L 1406 1709.142 1396.912 1708.821 C 1391.914 1708.644, 1387.639 1708.688, 1387.412 1708.917 M 581.809 1715.750 C 581.639 1716.162, 581.619 1744.287, 581.765 1778.250 L 582.030 1840 591.515 1840 L 601 1840 601 1813 L 601 1786 628 1786 L 655 1786 655 1777.500 L 655 1769 628 1769 L 601 1769 601 1751 L 601 1733 631.917 1733 C 651.142 1733, 662.959 1732.631, 663.167 1732.023 C 663.350 1731.486, 663.353 1727.436, 663.174 1723.023 L 662.848 1715 622.483 1715 C 600.282 1715, 581.979 1715.338, 581.809 1715.750 M 928.223 1747.006 C 922.435 1748.222, 914.488 1752.680, 910.977 1756.679 L 908.092 1759.965 906.361 1757.033 C 902.528 1750.546, 894.468 1747, 883.552 1747 C 874.199 1747, 868.171 1749.142, 862.060 1754.636 L 857.108 1759.089 856.804 1753.794 L 856.500 1748.500 848.250 1748.210 L 840 1747.919 840 1793.960 L 840 1840 849.500 1840 L 859 1840 859 1806.857 L 859 1773.714 863.752 1768.963 C 870.745 1761.969, 878.161 1760.514, 886.115 1764.576 C 891.689 1767.423, 892 1769.634, 892 1806.437 L 892 1840.072 901.750 1839.786 L 911.500 1839.500 912 1806.454 C 912.558 1769.599, 912.419 1770.327, 919.774 1765.604 C 927.233 1760.814, 936.138 1761.405, 941.548 1767.048 L 944.500 1770.128 945 1804.814 L 945.500 1839.500 955 1839.500 L 964.500 1839.500 964.442 1803.500 C 964.379 1764.394, 964.191 1762.873, 958.489 1755.396 C 953.350 1748.659, 939.122 1744.715, 928.223 1747.006 M 1016.459 1747.329 C 1004.537 1750.381, 995.221 1757.893, 990.477 1768.282 C 981.268 1788.449, 983.895 1815.916, 996.353 1829.706 C 1010.171 1845, 1041.018 1846.024, 1059.684 1831.809 L 1062.869 1829.383 1059.184 1823.705 C 1057.158 1820.582, 1055.154 1818.021, 1054.730 1818.013 C 1054.307 1818.006, 1052.250 1819.080, 1050.159 1820.400 C 1043.949 1824.320, 1037.045 1826.301, 1029.500 1826.329 C 1015.271 1826.381, 1007.468 1819.306, 1004.601 1803.750 L 1003.909 1800 1034.341 1800 L 1064.773 1800 1065.430 1795.621 C 1065.791 1793.212, 1065.595 1787.250, 1064.994 1782.371 C 1062.915 1765.479, 1054.925 1753.735, 1042.299 1749.011 C 1035.293 1746.389, 1023.204 1745.603, 1016.459 1747.329 M 1242 1747.360 C 1222.050 1752.791, 1212.053 1768.520, 1212.015 1794.540 C 1211.985 1814.810, 1219.269 1829.961, 1232.233 1836.595 C 1250.217 1845.797, 1273.654 1842.778, 1285.702 1829.708 C 1293.016 1821.773, 1296.781 1811.956, 1297.671 1798.500 C 1298.692 1783.079, 1294.884 1768.921, 1287.080 1759.120 C 1283.322 1754.400, 1275.010 1749.476, 1267.540 1747.542 C 1260.507 1745.722, 1248.335 1745.636, 1242 1747.360 M 709.462 1749.366 C 706.612 1750.693, 702.594 1753.790, 700.212 1756.497 L 696 1761.282 696 1754.602 L 696 1747.922 687.250 1748.211 L 678.500 1748.500 678.240 1794.250 L 677.980 1840 687.426 1840 L 696.871 1840 697.186 1808.591 L 697.500 1777.182 700.550 1773.341 C 702.228 1771.228, 706.021 1768.263, 708.979 1766.750 C 713.400 1764.490, 715.664 1764, 721.679 1764 L 729 1764 729.009 1760.750 C 729.013 1758.963, 729.301 1755.138, 729.648 1752.250 L 730.279 1747 722.389 1747.010 C 716.225 1747.017, 713.399 1747.532, 709.462 1749.366 M 764.634 1748.527 C 757.955 1750.211, 747.051 1755.703, 746.252 1757.785 C 745.809 1758.940, 750.739 1771, 751.654 1771 C 751.811 1771, 754.544 1769.677, 757.726 1768.060 C 768.253 1762.710, 780.060 1761.482, 787.684 1764.943 C 792.859 1767.293, 794.882 1770.971, 795.234 1778.669 L 795.500 1784.500 784.500 1785.212 C 768.657 1786.239, 761.335 1787.662, 754.257 1791.092 C 744.455 1795.843, 739.742 1804.197, 739.814 1816.692 C 739.906 1832.577, 750.862 1842.125, 769 1842.125 C 779.977 1842.125, 787.278 1839.005, 794.480 1831.238 C 797.234 1828.268, 797.741 1828.846, 798.215 1835.500 L 798.500 1839.500 806.809 1839.791 L 815.117 1840.083 814.769 1804.791 C 814.379 1765.253, 814.107 1763.506, 807.252 1756.448 C 801.046 1750.057, 794.280 1747.662, 781.500 1747.332 C 774.216 1747.144, 768.518 1747.547, 764.634 1748.527 M 1350.462 1749.345 C 1347.662 1750.660, 1343.575 1753.812, 1341.262 1756.440 L 1337.100 1761.168 1336.800 1754.834 C 1336.548 1749.524, 1336.217 1748.520, 1334.750 1748.625 C 1333.787 1748.694, 1329.850 1748.806, 1326 1748.875 L 1319 1749 1319 1794.500 L 1319 1840 1328.460 1840 L 1337.919 1840 1338.210 1808.670 L 1338.500 1777.341 1341.284 1773.693 C 1345.888 1767.660, 1352.006 1764.727, 1361.081 1764.201 C 1369.934 1763.689, 1369.613 1764.083, 1370.206 1753 L 1370.500 1747.500 1363 1747.239 C 1356.841 1747.025, 1354.599 1747.401, 1350.462 1749.345 M 1074.538 1748.796 C 1074.375 1748.959, 1075.327 1752.510, 1076.654 1756.689 C 1077.981 1760.867, 1081.283 1772.659, 1083.991 1782.893 C 1086.700 1793.127, 1091.297 1810.050, 1094.208 1820.500 L 1099.500 1839.500 1109.124 1839.785 C 1117.654 1840.037, 1118.804 1839.866, 1119.236 1838.285 C 1124.200 1820.118, 1137.457 1774.320, 1137.901 1773.804 C 1138.231 1773.420, 1142.605 1788.045, 1147.623 1806.304 L 1156.746 1839.500 1166.295 1839.785 C 1174.743 1840.038, 1175.903 1839.865, 1176.363 1838.285 C 1177.139 1835.623, 1190.105 1789.162, 1195.922 1768.200 C 1198.715 1758.135, 1201 1749.472, 1201 1748.950 C 1201 1748.417, 1196.873 1748, 1191.608 1748 C 1182.701 1748, 1182.188 1748.116, 1181.660 1750.250 C 1181.023 1752.827, 1167.381 1812.467, 1166.735 1815.500 C 1166.186 1818.079, 1166.433 1818.837, 1159.560 1793.500 C 1156.426 1781.950, 1152.277 1767.054, 1150.338 1760.399 L 1146.814 1748.297 1138.391 1748.350 L 1129.968 1748.404 1128.902 1752.452 C 1128.316 1754.678, 1125.779 1763.925, 1123.265 1773 C 1120.751 1782.075, 1117.012 1795.800, 1114.956 1803.500 C 1112.899 1811.200, 1110.991 1816.825, 1110.715 1816 C 1110.439 1815.175, 1107.676 1803.700, 1104.575 1790.500 C 1101.473 1777.300, 1097.913 1762.466, 1096.664 1757.536 L 1094.392 1748.572 1084.613 1748.536 C 1079.235 1748.516, 1074.701 1748.633, 1074.538 1748.796 M 1015.830 1764.027 C 1010.235 1766.982, 1006.528 1773.207, 1004.680 1782.750 L 1004.050 1786 1025.654 1786 L 1047.258 1786 1046.594 1780.750 C 1045.638 1773.186, 1042.175 1766.949, 1037.441 1764.266 C 1032.194 1761.293, 1021.236 1761.171, 1015.830 1764.027 M 1244.121 1764.169 C 1235.180 1768.595, 1231.520 1778.798, 1232.199 1797.405 C 1232.667 1810.234, 1234.997 1817.034, 1240.613 1821.965 C 1249.867 1830.091, 1266.255 1827.414, 1272.879 1816.695 C 1280.489 1804.383, 1278.968 1776.090, 1270.247 1767.737 C 1263.968 1761.723, 1252.287 1760.127, 1244.121 1764.169 M 776.121 1799.127 C 767.447 1800.568, 762.161 1803.370, 760.466 1807.427 C 757.555 1814.394, 759.686 1822.752, 765.085 1825.544 C 771.770 1829.001, 784.495 1826.303, 791.088 1820.031 L 795 1816.310 795 1807.155 L 795 1798 788.250 1798.117 C 784.538 1798.181, 779.079 1798.636, 776.121 1799.127" stroke="none" fill="#4b5d69" fill-rule="evenodd"/></svg>